<?xml version="1.0" encoding="utf-8"?>
<!-- Generator: Adobe Illustrator 21.0.0, SVG Export Plug-In . SVG Version: 6.00 Build 0)  -->
<svg version="1.1" id="Layer_1" xmlns="http://www.w3.org/2000/svg" xmlns:xlink="http://www.w3.org/1999/xlink" x="0px" y="0px"
	 viewBox="0 0 200 60" style="enable-background:new 0 0 200 60;" xml:space="preserve">
<style type="text/css">
	.st0{fill:#A6A6A6;}
	.st1{fill:#FFFFFF;stroke:#FFFFFF;stroke-width:0.2;stroke-miterlimit:10;}
	.st2{fill:#FFFFFF;}
	.st3{fill:url(#SVGID_1_);}
	.st4{fill:url(#SVGID_2_);}
	.st5{fill:url(#SVGID_3_);}
	.st6{fill:url(#SVGID_4_);}
	.st7{opacity:0.2;enable-background:new    ;}
	.st8{opacity:0.12;enable-background:new    ;}
	.st9{opacity:0.25;fill:#FFFFFF;enable-background:new    ;}
</style>
<g id="Google_Play_Store">
	<g>
		<path d="M184.8,57.1H15.2c-3.7,0-6.8-3.1-6.8-6.8V9.6c0-3.7,3.1-6.8,6.8-6.8h169.7c3.7,0,6.8,3.1,6.8,6.8v40.7
			C191.6,54.1,188.6,57.1,184.8,57.1z"/>
	</g>
	<g>
		<g>
			<path class="st0" d="M184.8,3.9c3.1,0,5.7,2.6,5.7,5.7v40.7c0,3.1-2.6,5.7-5.7,5.7H15.2c-3.1,0-5.7-2.6-5.7-5.7V9.6
				c0-3.1,2.6-5.7,5.7-5.7H184.8 M184.8,2.9H15.2c-3.7,0-6.8,3.1-6.8,6.8v40.7c0,3.7,3.1,6.8,6.8,6.8h169.7c3.7,0,6.8-3.1,6.8-6.8
				V9.6C191.6,5.9,188.6,2.9,184.8,2.9L184.8,2.9z"/>
		</g>
	</g>
	<g>
		<path class="st1" d="M72.7,16.8c0,1.1-0.3,2-1,2.7c-0.8,0.8-1.8,1.2-3,1.2c-1.2,0-2.2-0.4-3-1.2c-0.8-0.8-1.2-1.8-1.2-3
			c0-1.2,0.4-2.2,1.2-3c0.8-0.8,1.8-1.2,3-1.2c0.6,0,1.1,0.1,1.7,0.3c0.5,0.2,1,0.5,1.3,0.9L71,14.1c-0.5-0.6-1.3-1-2.2-1
			c-0.9,0-1.6,0.3-2.2,0.9c-0.6,0.6-0.9,1.4-0.9,2.3s0.3,1.7,0.9,2.3c0.6,0.6,1.4,0.9,2.2,0.9c0.9,0,1.7-0.3,2.3-0.9
			c0.4-0.4,0.6-0.9,0.7-1.6h-3v-1h3.9C72.7,16.4,72.7,16.6,72.7,16.8z"/>
		<path class="st1" d="M79,13.4h-3.7v2.6h3.3v1h-3.3v2.6H79v1h-4.8v-8.1H79V13.4z"/>
		<path class="st1" d="M83.4,20.5h-1v-7.1h-2.3v-1h5.6v1h-2.3V20.5z"/>
		<path class="st1" d="M89.7,20.5v-8.1h1v8.1H89.7z"/>
		<path class="st1" d="M95.4,20.5h-1v-7.1h-2.3v-1h5.6v1h-2.3V20.5z"/>
		<path class="st1" d="M108.3,19.4c-0.8,0.8-1.8,1.2-3,1.2c-1.2,0-2.2-0.4-3-1.2c-0.8-0.8-1.2-1.8-1.2-3s0.4-2.2,1.2-3
			c0.8-0.8,1.8-1.2,3-1.2c1.2,0,2.2,0.4,3,1.2c0.8,0.8,1.2,1.8,1.2,3C109.5,17.6,109.1,18.6,108.3,19.4z M103.1,18.8
			c0.6,0.6,1.3,0.9,2.2,0.9c0.9,0,1.6-0.3,2.2-0.9c0.6-0.6,0.9-1.4,0.9-2.3s-0.3-1.7-0.9-2.3c-0.6-0.6-1.3-0.9-2.2-0.9
			c-0.9,0-1.6,0.3-2.2,0.9c-0.6,0.6-0.9,1.4-0.9,2.3S102.5,18.2,103.1,18.8z"/>
		<path class="st1" d="M111,20.5v-8.1h1.3l4,6.3h0l0-1.6v-4.8h1v8.1h-1.1l-4.1-6.6h0l0,1.6v5.1H111z"/>
	</g>
	<path class="st2" d="M100.9,32.4c-3.2,0-5.8,2.4-5.8,5.8c0,3.3,2.6,5.8,5.8,5.8c3.2,0,5.8-2.4,5.8-5.8
		C106.7,34.8,104.1,32.4,100.9,32.4z M100.9,41.6c-1.7,0-3.3-1.4-3.3-3.5c0-2.1,1.5-3.5,3.3-3.5s3.3,1.4,3.3,3.5
		C104.1,40.2,102.6,41.6,100.9,41.6z M88.2,32.4c-3.2,0-5.8,2.4-5.8,5.8c0,3.3,2.6,5.8,5.8,5.8c3.2,0,5.8-2.4,5.8-5.8
		C94,34.8,91.4,32.4,88.2,32.4z M88.2,41.6c-1.7,0-3.3-1.4-3.3-3.5c0-2.1,1.5-3.5,3.3-3.5c1.7,0,3.3,1.4,3.3,3.5
		C91.5,40.2,90,41.6,88.2,41.6z M73.2,34.1v2.4H79c-0.2,1.4-0.6,2.4-1.3,3.1c-0.9,0.9-2.2,1.8-4.5,1.8c-3.6,0-6.4-2.9-6.4-6.5
		c0-3.6,2.8-6.5,6.4-6.5c1.9,0,3.4,0.8,4.4,1.7l1.7-1.7c-1.5-1.4-3.4-2.5-6.1-2.5c-4.9,0-9.1,4-9.1,9c0,4.9,4.2,9,9.1,9
		c2.7,0,4.7-0.9,6.3-2.5c1.6-1.6,2.1-3.9,2.1-5.7c0-0.6,0-1.1-0.1-1.5H73.2z M134.7,36.1c-0.5-1.3-1.9-3.7-4.9-3.7
		c-3,0-5.4,2.3-5.4,5.8c0,3.2,2.4,5.8,5.7,5.8c2.6,0,4.2-1.6,4.8-2.6l-2-1.3c-0.7,1-1.6,1.6-2.8,1.6c-1.3,0-2.2-0.6-2.8-1.7l7.7-3.2
		L134.7,36.1z M126.8,38c-0.1-2.2,1.7-3.4,3-3.4c1,0,1.9,0.5,2.1,1.2L126.8,38z M120.5,43.6h2.5v-17h-2.5V43.6z M116.4,33.7
		L116.4,33.7c-0.7-0.7-1.7-1.3-3.1-1.3c-2.9,0-5.5,2.5-5.5,5.8c0,3.2,2.6,5.8,5.5,5.8c1.4,0,2.5-0.6,3-1.3h0.1v0.8
		c0,2.2-1.2,3.4-3.1,3.4c-1.6,0-2.5-1.1-2.9-2.1l-2.2,0.9c0.6,1.5,2.3,3.4,5.1,3.4c3,0,5.5-1.7,5.5-6V32.7h-2.4V33.7z M113.5,41.6
		c-1.7,0-3.2-1.5-3.2-3.5c0-2,1.5-3.5,3.2-3.5c1.7,0,3.1,1.5,3.1,3.5C116.6,40.2,115.2,41.6,113.5,41.6z M146.6,26.6h-6.1v17h2.5
		v-6.4h3.5c2.8,0,5.6-2,5.6-5.3S149.4,26.6,146.6,26.6z M146.6,34.8H143V29h3.6c1.9,0,3,1.6,3,2.9C149.6,33.2,148.5,34.8,146.6,34.8
		z M162.3,32.3c-1.8,0-3.7,0.8-4.5,2.6l2.2,0.9c0.5-0.9,1.4-1.2,2.3-1.2c1.3,0,2.6,0.8,2.7,2.2V37c-0.5-0.3-1.4-0.7-2.6-0.7
		c-2.4,0-4.9,1.3-4.9,3.8c0,2.3,2,3.7,4.2,3.7c1.7,0,2.6-0.8,3.2-1.7h0.1v1.3h2.4V37C167.4,34,165.2,32.3,162.3,32.3z M162,41.6
		c-0.8,0-2-0.4-2-1.4c0-1.3,1.4-1.8,2.7-1.8c1.1,0,1.6,0.2,2.3,0.6C164.8,40.5,163.4,41.6,162,41.6z M176.3,32.7l-2.9,7.4h-0.1
		l-3-7.4h-2.7l4.5,10.3l-2.6,5.7h2.6l7-16H176.3z M153.5,43.6h2.5v-17h-2.5V43.6z"/>
	<g>
		
			<linearGradient id="SVGID_1_" gradientUnits="userSpaceOnUse" x1="37.9657" y1="47.3256" x2="15.185" y2="24.5449" gradientTransform="matrix(1 0 0 -1 0 62)">
			<stop  offset="0" style="stop-color:#00A0FF"/>
			<stop  offset="6.574450e-03" style="stop-color:#00A1FF"/>
			<stop  offset="0.2601" style="stop-color:#00BEFF"/>
			<stop  offset="0.5122" style="stop-color:#00D2FF"/>
			<stop  offset="0.7604" style="stop-color:#00DFFF"/>
			<stop  offset="1" style="stop-color:#00E3FF"/>
		</linearGradient>
		<path class="st3" d="M22.5,13.1c-0.4,0.4-0.6,1.1-0.6,1.9v30c0,0.8,0.2,1.5,0.6,1.9l0.1,0.1l16.8-16.8V30v-0.2L22.6,13L22.5,13.1z
			"/>
		
			<linearGradient id="SVGID_2_" gradientUnits="userSpaceOnUse" x1="54.3017" y1="31.998" x2="21.4565" y2="31.998" gradientTransform="matrix(1 0 0 -1 0 62)">
			<stop  offset="0" style="stop-color:#FFE000"/>
			<stop  offset="0.4087" style="stop-color:#FFBD00"/>
			<stop  offset="0.7754" style="stop-color:#FFA500"/>
			<stop  offset="1" style="stop-color:#FF9C00"/>
		</linearGradient>
		<path class="st4" d="M45.1,35.8l-5.6-5.6V30v-0.2l5.6-5.6l0.1,0.1l6.6,3.8c1.9,1.1,1.9,2.8,0,3.9l-6.6,3.8L45.1,35.8z"/>
		
			<linearGradient id="SVGID_3_" gradientUnits="userSpaceOnUse" x1="42.0749" y1="28.8832" x2="11.1825" y2="-2.0092" gradientTransform="matrix(1 0 0 -1 0 62)">
			<stop  offset="0" style="stop-color:#FF3A44"/>
			<stop  offset="1" style="stop-color:#C31162"/>
		</linearGradient>
		<path class="st5" d="M45.2,35.7L39.5,30L22.5,46.9c0.6,0.7,1.7,0.7,2.8,0.1L45.2,35.7"/>
		
			<linearGradient id="SVGID_4_" gradientUnits="userSpaceOnUse" x1="18.2799" y1="58.9091" x2="32.0747" y2="45.1144" gradientTransform="matrix(1 0 0 -1 0 62)">
			<stop  offset="0" style="stop-color:#32A071"/>
			<stop  offset="6.850000e-02" style="stop-color:#2DA771"/>
			<stop  offset="0.4762" style="stop-color:#15CF74"/>
			<stop  offset="0.8009" style="stop-color:#06E775"/>
			<stop  offset="1" style="stop-color:#00F076"/>
		</linearGradient>
		<path class="st6" d="M45.2,24.3L25.4,13c-1.2-0.7-2.2-0.6-2.8,0.1L39.5,30L45.2,24.3z"/>
		<g>
			<path class="st7" d="M45.1,35.6L25.4,46.8c-1.1,0.6-2.1,0.6-2.7,0l0,0l-0.1,0.1l0,0l0.1,0.1l0,0c0.6,0.6,1.6,0.6,2.7,0l19.8-11.3
				L45.1,35.6z"/>
			<path class="st8" d="M22.5,46.7c-0.4-0.4-0.6-1.1-0.6-1.9V45c0,0.8,0.2,1.5,0.6,1.9l0.1-0.1L22.5,46.7z"/>
		</g>
		<path class="st8" d="M51.8,31.8l-6.8,3.8l0.1,0.1l6.6-3.8c0.9-0.5,1.4-1.2,1.4-2l0,0C53.2,30.6,52.7,31.3,51.8,31.8z"/>
		<path class="st9" d="M25.4,13.2l26.5,15c0.9,0.5,1.3,1.1,1.4,1.8l0,0c0-0.7-0.5-1.4-1.4-2L25.4,13c-1.9-1.1-3.4-0.2-3.4,2v0.2
			C21.9,13,23.5,12.1,25.4,13.2z"/>
	</g>
</g>
</svg>
