<?xml version="1.0" encoding="utf-8"?>
<!-- Generator: Adobe Illustrator 21.0.0, SVG Export Plug-In . SVG Version: 6.00 Build 0)  -->
<svg version="1.1" id="Layer_1" xmlns="http://www.w3.org/2000/svg" xmlns:xlink="http://www.w3.org/1999/xlink" x="0px" y="0px"
	 viewBox="0 0 200 60" style="enable-background:new 0 0 200 60;" xml:space="preserve">
<style type="text/css">
	.st0{fill:#A6A6A6;}
	.st1{fill:#FFFFFF;}
</style>
<g id="Famous_Apple">
	<g>
		<path class="st0" d="M14.7,57.1c-3.5,0-6.3-2.8-6.3-6.3V9.2c0-3.5,2.8-6.3,6.3-6.3h170.6c3.5,0,6.3,2.8,6.3,6.3v41.5
			c0,1.7-0.7,3.3-1.8,4.5s-2.8,1.8-4.5,1.8H14.7z"/>
	</g>
	<path d="M190.5,50.8c0,2.9-2.3,5.2-5.2,5.2H14.7c-2.9,0-5.2-2.3-5.2-5.2V9.2c0-2.9,2.3-5.2,5.2-5.2h170.6c2.9,0,5.2,2.3,5.2,5.2
		L190.5,50.8L190.5,50.8z"/>
	<g>
		<g>
			<path class="st1" d="M49.2,29.7c0-4.4,3.6-6.5,3.8-6.6c-2.1-3-5.2-3.4-6.4-3.4c-2.7-0.3-5.3,1.6-6.6,1.6c-1.4,0-3.5-1.6-5.7-1.5
				c-2.9,0-5.6,1.7-7.1,4.3c-3.1,5.3-0.8,13.2,2.2,17.5c1.5,2.1,3.2,4.5,5.5,4.4c2.2-0.1,3-1.4,5.7-1.4c2.6,0,3.4,1.4,5.7,1.4
				c2.4,0,3.9-2.1,5.3-4.3c1.7-2.4,2.4-4.8,2.4-4.9C53.8,36.7,49.3,35,49.2,29.7z"/>
			<path class="st1" d="M44.9,16.8c1.2-1.5,2-3.5,1.8-5.6c-1.7,0.1-3.9,1.2-5.1,2.6c-1.1,1.3-2.1,3.4-1.8,5.4
				C41.7,19.4,43.6,18.3,44.9,16.8z"/>
		</g>
	</g>
	<g>
		<path class="st1" d="M81.2,44.9h-3.1l-1.7-5.3h-5.9l-1.6,5.3h-3l5.8-18.1h3.6L81.2,44.9z M75.9,37.3l-1.5-4.7
			c-0.2-0.5-0.5-1.6-0.9-3.4h-0.1c-0.2,0.8-0.5,1.9-0.9,3.4l-1.5,4.7H75.9z"/>
		<path class="st1" d="M96.2,38.2c0,2.2-0.6,4-1.8,5.3c-1.1,1.1-2.4,1.7-4,1.7c-1.7,0-3-0.6-3.7-1.9h-0.1v6.9h-2.9V36.1
			c0-1.4,0-2.8-0.1-4.3h2.6l0.2,2.1h0.1c1-1.6,2.4-2.3,4.4-2.3c1.5,0,2.8,0.6,3.9,1.8C95.7,34.6,96.2,36.2,96.2,38.2z M93.2,38.3
			c0-1.3-0.3-2.3-0.9-3.1c-0.6-0.9-1.5-1.3-2.5-1.3c-0.7,0-1.4,0.2-1.9,0.7c-0.6,0.5-1,1.1-1.1,1.9c-0.1,0.4-0.1,0.7-0.1,0.9v2.2
			c0,0.9,0.3,1.8,0.9,2.4c0.6,0.7,1.3,1,2.3,1c1.1,0,1.9-0.4,2.6-1.3C92.9,40.8,93.2,39.7,93.2,38.3z"/>
		<path class="st1" d="M111.2,38.2c0,2.2-0.6,4-1.8,5.3c-1.1,1.1-2.4,1.7-4,1.7c-1.7,0-3-0.6-3.7-1.9h-0.1v6.9h-2.9V36.1
			c0-1.4,0-2.8-0.1-4.3h2.6l0.2,2.1h0.1c1-1.6,2.4-2.3,4.4-2.3c1.5,0,2.8,0.6,3.9,1.8C110.7,34.6,111.2,36.2,111.2,38.2z
			 M108.2,38.3c0-1.3-0.3-2.3-0.9-3.1c-0.6-0.9-1.5-1.3-2.5-1.3c-0.7,0-1.4,0.2-1.9,0.7c-0.6,0.5-1,1.1-1.1,1.9
			c-0.1,0.4-0.1,0.7-0.1,0.9v2.2c0,0.9,0.3,1.8,0.9,2.4c0.6,0.7,1.3,1,2.3,1c1.1,0,1.9-0.4,2.5-1.3
			C107.9,40.8,108.2,39.7,108.2,38.3z"/>
		<path class="st1" d="M128,39.8c0,1.5-0.5,2.8-1.6,3.8c-1.2,1.1-2.8,1.6-4.9,1.6c-1.9,0-3.5-0.4-4.7-1.1l0.7-2.4
			c1.3,0.8,2.7,1.2,4.2,1.2c1.1,0,1.9-0.2,2.6-0.7c0.6-0.5,0.9-1.2,0.9-2c0-0.7-0.2-1.4-0.8-1.9c-0.5-0.5-1.3-1-2.5-1.4
			c-3.2-1.2-4.8-2.9-4.8-5.2c0-1.5,0.6-2.7,1.7-3.7c1.1-1,2.6-1.4,4.4-1.4c1.6,0,3,0.3,4.1,0.9l-0.7,2.4c-1-0.6-2.2-0.8-3.5-0.8
			c-1,0-1.8,0.3-2.4,0.8c-0.5,0.4-0.7,1-0.7,1.6c0,0.7,0.3,1.3,0.8,1.8c0.5,0.4,1.4,0.9,2.6,1.4c1.6,0.6,2.7,1.4,3.4,2.2
			C127.6,37.5,128,38.5,128,39.8z"/>
		<path class="st1" d="M137.6,34h-3.2v6.3c0,1.6,0.6,2.4,1.7,2.4c0.5,0,0.9,0,1.3-0.1l0.1,2.2c-0.6,0.2-1.3,0.3-2.3,0.3
			c-1.1,0-2-0.3-2.7-1c-0.6-0.7-1-1.9-1-3.5V34h-1.9v-2.2h1.9v-2.4l2.8-0.9v3.2h3.2V34z"/>
		<path class="st1" d="M152,38.2c0,2-0.6,3.7-1.7,4.9c-1.2,1.3-2.8,2-4.8,2c-1.9,0-3.4-0.6-4.6-1.9c-1.1-1.3-1.7-2.9-1.7-4.8
			c0-2,0.6-3.7,1.8-5c1.2-1.3,2.8-1.9,4.7-1.9c1.9,0,3.5,0.6,4.6,1.9C151.4,34.7,152,36.3,152,38.2z M149,38.3
			c0-1.2-0.3-2.2-0.8-3.1c-0.6-1-1.5-1.6-2.6-1.6c-1.2,0-2.1,0.5-2.7,1.6c-0.5,0.9-0.8,1.9-0.8,3.2c0,1.2,0.3,2.2,0.8,3.1
			c0.6,1,1.5,1.6,2.6,1.6c1.1,0,2-0.5,2.6-1.6C148.7,40.6,149,39.5,149,38.3z"/>
		<path class="st1" d="M161.4,34.4c-0.3-0.1-0.6-0.1-0.9-0.1c-1,0-1.8,0.4-2.4,1.2c-0.5,0.7-0.7,1.5-0.7,2.6v6.8h-2.9l0-8.9
			c0-1.5,0-2.9-0.1-4.1h2.5l0.1,2.5h0.1c0.3-0.9,0.8-1.5,1.5-2.1c0.6-0.5,1.3-0.7,2.1-0.7c0.3,0,0.5,0,0.7,0.1V34.4z"/>
		<path class="st1" d="M174.4,37.7c0,0.5,0,1-0.1,1.3h-8.7c0,1.3,0.5,2.3,1.3,3c0.7,0.6,1.7,0.9,2.8,0.9c1.3,0,2.5-0.2,3.5-0.6
			l0.5,2c-1.2,0.5-2.7,0.8-4.4,0.8c-2,0-3.6-0.6-4.8-1.8c-1.2-1.2-1.7-2.8-1.7-4.8c0-2,0.5-3.6,1.6-4.9c1.1-1.4,2.6-2.1,4.6-2.1
			c1.9,0,3.3,0.7,4.3,2.1C174,34.7,174.4,36.1,174.4,37.7z M171.6,37c0-0.9-0.2-1.6-0.6-2.2c-0.5-0.8-1.3-1.2-2.3-1.2
			c-0.9,0-1.7,0.4-2.3,1.2c-0.5,0.6-0.8,1.4-0.9,2.3H171.6z"/>
	</g>
	<g>
		<g>
			<path class="st1" d="M75,15.6c0,1.6-0.5,2.8-1.4,3.6c-0.9,0.7-2.2,1.1-3.8,1.1c-0.8,0-1.5,0-2.1-0.1v-8.7
				c0.8-0.1,1.6-0.2,2.5-0.2c1.6,0,2.7,0.3,3.5,1C74.5,13.1,75,14.2,75,15.6z M73.5,15.7c0-1-0.3-1.8-0.8-2.4
				c-0.5-0.6-1.4-0.8-2.4-0.8c-0.4,0-0.8,0-1.1,0.1v6.6c0.2,0,0.5,0,1,0c1.1,0,1.9-0.3,2.5-0.9C73.2,17.7,73.5,16.8,73.5,15.7z"/>
			<path class="st1" d="M82.9,17c0,1-0.3,1.8-0.8,2.4c-0.6,0.7-1.4,1-2.3,1c-0.9,0-1.7-0.3-2.2-0.9c-0.6-0.6-0.8-1.4-0.8-2.4
				c0-1,0.3-1.8,0.9-2.4c0.6-0.6,1.4-0.9,2.3-0.9c0.9,0,1.7,0.3,2.3,0.9C82.7,15.3,82.9,16.1,82.9,17z M81.5,17.1
				c0-0.6-0.1-1.1-0.4-1.5c-0.3-0.5-0.7-0.8-1.3-0.8c-0.6,0-1,0.3-1.3,0.8c-0.3,0.4-0.4,0.9-0.4,1.5c0,0.6,0.1,1.1,0.4,1.5
				c0.3,0.5,0.7,0.8,1.3,0.8c0.5,0,1-0.3,1.3-0.8C81.3,18.2,81.5,17.7,81.5,17.1z"/>
			<path class="st1" d="M93.6,13.9l-2,6.4h-1.3l-0.8-2.8c-0.2-0.7-0.4-1.4-0.5-2.1h0c-0.1,0.7-0.3,1.4-0.5,2.1l-0.9,2.8h-1.3
				l-1.9-6.4h1.5l0.7,3c0.2,0.7,0.3,1.4,0.4,2.1h0c0.1-0.5,0.3-1.2,0.5-2l0.9-3.1h1.2l0.9,3c0.2,0.7,0.4,1.4,0.5,2.1h0
				c0.1-0.7,0.2-1.4,0.4-2.1l0.8-3H93.6z"/>
			<path class="st1" d="M101,20.3h-1.4v-3.7c0-1.1-0.4-1.7-1.3-1.7c-0.4,0-0.8,0.2-1,0.5c-0.3,0.3-0.4,0.7-0.4,1.1v3.8h-1.4v-4.6
				c0-0.6,0-1.2-0.1-1.8h1.3l0.1,1h0c0.2-0.3,0.4-0.6,0.7-0.8c0.4-0.2,0.8-0.4,1.3-0.4c0.6,0,1.1,0.2,1.5,0.6
				c0.5,0.5,0.7,1.2,0.7,2.1V20.3z"/>
			<path class="st1" d="M104.9,20.3h-1.4v-9.4h1.4V20.3z"/>
			<path class="st1" d="M113.3,17c0,1-0.3,1.8-0.8,2.4c-0.6,0.7-1.4,1-2.3,1c-0.9,0-1.7-0.3-2.2-0.9c-0.6-0.6-0.8-1.4-0.8-2.4
				c0-1,0.3-1.8,0.9-2.4c0.6-0.6,1.4-0.9,2.3-0.9c0.9,0,1.7,0.3,2.3,0.9C113,15.3,113.3,16.1,113.3,17z M111.8,17.1
				c0-0.6-0.1-1.1-0.4-1.5c-0.3-0.5-0.7-0.8-1.3-0.8c-0.6,0-1,0.3-1.3,0.8c-0.3,0.4-0.4,0.9-0.4,1.5c0,0.6,0.1,1.1,0.4,1.5
				c0.3,0.5,0.7,0.8,1.3,0.8c0.5,0,1-0.3,1.3-0.8C111.7,18.2,111.8,17.7,111.8,17.1z"/>
			<path class="st1" d="M120.2,20.3h-1.3l-0.1-0.7h0c-0.4,0.6-1.1,0.9-1.9,0.9c-0.6,0-1.1-0.2-1.5-0.6c-0.3-0.4-0.5-0.8-0.5-1.3
				c0-0.8,0.3-1.4,1-1.8c0.7-0.4,1.6-0.6,2.8-0.6V16c0-0.8-0.4-1.3-1.3-1.3c-0.6,0-1.2,0.2-1.7,0.5l-0.3-0.9
				c0.6-0.4,1.3-0.6,2.2-0.6c1.7,0,2.5,0.9,2.5,2.7v2.4C120.1,19.4,120.2,19.9,120.2,20.3z M118.7,18.1v-1c-1.6,0-2.4,0.4-2.4,1.3
				c0,0.3,0.1,0.6,0.3,0.8c0.2,0.2,0.4,0.3,0.7,0.3c0.3,0,0.6-0.1,0.9-0.3c0.3-0.2,0.4-0.5,0.5-0.8
				C118.7,18.3,118.7,18.2,118.7,18.1z"/>
			<path class="st1" d="M128.3,20.3h-1.3l-0.1-1h0c-0.4,0.8-1.1,1.2-2.1,1.2c-0.8,0-1.4-0.3-1.9-0.9c-0.5-0.6-0.8-1.4-0.8-2.4
				c0-1,0.3-1.9,0.8-2.5c0.5-0.6,1.2-0.9,2-0.9c0.9,0,1.5,0.3,1.8,0.9h0v-3.7h1.4v7.6C128.3,19.2,128.3,19.8,128.3,20.3z
				 M126.8,17.6v-1.1c0-0.2,0-0.3,0-0.4c-0.1-0.3-0.3-0.6-0.5-0.9c-0.3-0.2-0.6-0.3-1-0.3c-0.5,0-0.9,0.2-1.3,0.6
				c-0.3,0.4-0.5,1-0.5,1.6c0,0.6,0.1,1.1,0.4,1.5c0.3,0.4,0.7,0.6,1.2,0.6c0.5,0,0.8-0.2,1.1-0.5C126.7,18.4,126.8,18,126.8,17.6z"
				/>
			<path class="st1" d="M140.5,17c0,1-0.3,1.8-0.8,2.4c-0.6,0.7-1.4,1-2.3,1c-0.9,0-1.7-0.3-2.2-0.9c-0.6-0.6-0.8-1.4-0.8-2.4
				c0-1,0.3-1.8,0.9-2.4c0.6-0.6,1.4-0.9,2.3-0.9c0.9,0,1.7,0.3,2.3,0.9C140.2,15.3,140.5,16.1,140.5,17z M139,17.1
				c0-0.6-0.1-1.1-0.4-1.5c-0.3-0.5-0.7-0.8-1.3-0.8c-0.6,0-1,0.3-1.3,0.8c-0.3,0.4-0.4,0.9-0.4,1.5c0,0.6,0.1,1.1,0.4,1.5
				c0.3,0.5,0.7,0.8,1.3,0.8c0.5,0,1-0.3,1.3-0.8C138.9,18.2,139,17.7,139,17.1z"/>
			<path class="st1" d="M148.2,20.3h-1.4v-3.7c0-1.1-0.4-1.7-1.3-1.7c-0.4,0-0.8,0.2-1,0.5c-0.3,0.3-0.4,0.7-0.4,1.1v3.8h-1.4v-4.6
				c0-0.6,0-1.2-0.1-1.8h1.3l0.1,1h0c0.2-0.3,0.4-0.6,0.7-0.8c0.4-0.2,0.8-0.4,1.3-0.4c0.6,0,1.1,0.2,1.5,0.6
				c0.5,0.5,0.7,1.2,0.7,2.1V20.3z"/>
			<path class="st1" d="M157.8,14.9h-1.6v3.1c0,0.8,0.3,1.2,0.8,1.2c0.3,0,0.5,0,0.6-0.1l0,1.1c-0.3,0.1-0.7,0.2-1.1,0.2
				c-0.6,0-1-0.2-1.3-0.5c-0.3-0.3-0.5-0.9-0.5-1.7v-3.2h-0.9v-1.1h0.9v-1.2l1.4-0.4v1.6h1.6V14.9z"/>
			<path class="st1" d="M165.3,20.3h-1.4v-3.6c0-1.1-0.4-1.7-1.3-1.7c-0.7,0-1.1,0.3-1.4,1c0,0.1-0.1,0.3-0.1,0.5v3.9h-1.4v-9.4h1.4
				v3.9h0c0.4-0.7,1.1-1.1,1.9-1.1c0.6,0,1.1,0.2,1.5,0.6c0.5,0.5,0.7,1.2,0.7,2.2V20.3z"/>
			<path class="st1" d="M173.1,16.8c0,0.3,0,0.5-0.1,0.6h-4.3c0,0.6,0.2,1.1,0.6,1.5c0.4,0.3,0.8,0.4,1.4,0.4c0.6,0,1.2-0.1,1.7-0.3
				l0.2,1c-0.6,0.3-1.3,0.4-2.2,0.4c-1,0-1.8-0.3-2.3-0.9c-0.6-0.6-0.8-1.4-0.8-2.4c0-1,0.3-1.8,0.8-2.4c0.6-0.7,1.3-1,2.2-1
				c0.9,0,1.6,0.3,2.1,1C172.9,15.3,173.1,16,173.1,16.8z M171.7,16.4c0-0.4-0.1-0.8-0.3-1.1c-0.2-0.4-0.6-0.6-1.1-0.6
				c-0.5,0-0.8,0.2-1.1,0.6c-0.2,0.3-0.4,0.7-0.4,1.1H171.7z"/>
		</g>
	</g>
</g>
</svg>
